<svg width="232" height="54" viewBox="0 0 232 54" fill="none" xmlns="http://www.w3.org/2000/svg">
<rect x="150" y="10" width="82" height="44" fill="#F83D61"/>
<path d="M28.4898 29.1792H38.8898V33.9152H28.4898V29.1792ZM28.9378 38.0112H40.6498V42.9072H22.6658V20.5072H40.2338V25.4032H28.9378V38.0112ZM55.1738 25.2752C56.5178 25.2752 57.7338 25.5526 58.8218 26.1072C59.9098 26.6406 60.7632 27.4726 61.3818 28.6032C62.0218 29.7339 62.3418 31.1952 62.3418 32.9872V42.9072H56.2618V33.9792C56.2618 32.7419 56.0058 31.8459 55.4938 31.2912C55.0032 30.7152 54.3098 30.4272 53.4138 30.4272C52.7738 30.4272 52.1872 30.5766 51.6538 30.8752C51.1205 31.1526 50.7045 31.5899 50.4058 32.1872C50.1072 32.7846 49.9578 33.5632 49.9578 34.5232V42.9072H43.8778V25.5632H49.6698V30.4912L48.5498 29.0512C49.2112 27.7926 50.1178 26.8539 51.2698 26.2352C52.4218 25.5952 53.7232 25.2752 55.1738 25.2752ZM74.8578 49.4032C73.1938 49.4032 71.6045 49.2112 70.0898 48.8272C68.5965 48.4432 67.3165 47.8779 66.2498 47.1312L68.4578 42.8752C69.1832 43.4512 70.0792 43.8992 71.1458 44.2192C72.2338 44.5606 73.2898 44.7312 74.3138 44.7312C75.9565 44.7312 77.1405 44.3686 77.8658 43.6432C78.5912 42.9392 78.9538 41.9046 78.9538 40.5392V38.4912L79.2738 33.6272L79.2418 28.7312V25.5632H85.0338V39.7392C85.0338 43.0246 84.1485 45.4566 82.3778 47.0352C80.6072 48.6139 78.1005 49.4032 74.8578 49.4032ZM73.8018 42.0112C72.2658 42.0112 70.8472 41.6699 69.5458 40.9872C68.2658 40.2832 67.2312 39.3126 66.4418 38.0752C65.6738 36.8166 65.2898 35.3339 65.2898 33.6272C65.2898 31.9206 65.6738 30.4486 66.4418 29.2112C67.2312 27.9526 68.2658 26.9819 69.5458 26.2992C70.8472 25.6166 72.2658 25.2752 73.8018 25.2752C75.2738 25.2752 76.5325 25.5739 77.5778 26.1712C78.6232 26.7472 79.4125 27.6539 79.9458 28.8912C80.5005 30.1286 80.7778 31.7072 80.7778 33.6272C80.7778 35.5472 80.5005 37.1259 79.9458 38.3632C79.4125 39.6006 78.6232 40.5179 77.5778 41.1152C76.5325 41.7126 75.2738 42.0112 73.8018 42.0112ZM75.2418 37.1792C75.9672 37.1792 76.6072 37.0299 77.1618 36.7312C77.7378 36.4326 78.1858 36.0166 78.5058 35.4832C78.8472 34.9499 79.0178 34.3312 79.0178 33.6272C79.0178 32.9232 78.8472 32.3046 78.5058 31.7712C78.1858 31.2379 77.7378 30.8326 77.1618 30.5552C76.6072 30.2566 75.9672 30.1072 75.2418 30.1072C74.5165 30.1072 73.8658 30.2566 73.2898 30.5552C72.7138 30.8326 72.2552 31.2379 71.9138 31.7712C71.5938 32.3046 71.4338 32.9232 71.4338 33.6272C71.4338 34.3312 71.5938 34.9499 71.9138 35.4832C72.2552 36.0166 72.7138 36.4326 73.2898 36.7312C73.8658 37.0299 74.5165 37.1792 75.2418 37.1792ZM88.9403 42.9072V19.1632H95.0203V42.9072H88.9403ZM98.9716 42.9072V25.5632H105.052V42.9072H98.9716ZM102.012 23.6432C100.902 23.6432 100.006 23.3339 99.3236 22.7152C98.6409 22.0966 98.2996 21.3286 98.2996 20.4112C98.2996 19.4939 98.6409 18.7259 99.3236 18.1072C100.006 17.4886 100.902 17.1792 102.012 17.1792C103.121 17.1792 104.017 17.4779 104.7 18.0752C105.382 18.6512 105.724 19.3979 105.724 20.3152C105.724 21.2752 105.382 22.0752 104.7 22.7152C104.038 23.3339 103.142 23.6432 102.012 23.6432ZM115.307 43.1952C113.835 43.1952 112.395 43.0246 110.987 42.6832C109.6 42.3419 108.48 41.9152 107.627 41.4032L109.451 37.2432C110.262 37.7339 111.211 38.1286 112.299 38.4272C113.387 38.7046 114.454 38.8432 115.499 38.8432C116.523 38.8432 117.227 38.7366 117.611 38.5232C118.016 38.3099 118.219 38.0219 118.219 37.6592C118.219 37.3179 118.027 37.0726 117.643 36.9232C117.28 36.7526 116.79 36.6246 116.171 36.5392C115.574 36.4539 114.912 36.3579 114.187 36.2512C113.462 36.1446 112.726 36.0059 111.979 35.8352C111.254 35.6432 110.582 35.3659 109.963 35.0032C109.366 34.6192 108.886 34.1072 108.523 33.4672C108.16 32.8272 107.979 32.0166 107.979 31.0352C107.979 29.9259 108.299 28.9446 108.939 28.0912C109.6 27.2166 110.56 26.5339 111.819 26.0432C113.078 25.5312 114.614 25.2752 116.427 25.2752C117.643 25.2752 118.87 25.4032 120.107 25.6592C121.366 25.8939 122.422 26.2566 123.275 26.7472L121.451 30.8752C120.598 30.3846 119.744 30.0539 118.891 29.8832C118.038 29.6912 117.227 29.5952 116.459 29.5952C115.435 29.5952 114.71 29.7126 114.283 29.9472C113.878 30.1819 113.675 30.4699 113.675 30.8112C113.675 31.1526 113.856 31.4192 114.219 31.6112C114.582 31.7819 115.062 31.9206 115.659 32.0272C116.278 32.1126 116.95 32.2086 117.675 32.3152C118.4 32.4006 119.126 32.5392 119.851 32.7312C120.598 32.9232 121.27 33.2112 121.867 33.5952C122.486 33.9579 122.976 34.4592 123.339 35.0992C123.702 35.7179 123.883 36.5179 123.883 37.4992C123.883 38.5659 123.552 39.5259 122.891 40.3792C122.251 41.2326 121.291 41.9152 120.011 42.4272C118.752 42.9392 117.184 43.1952 115.307 43.1952ZM137.799 25.2752C139.143 25.2752 140.359 25.5526 141.447 26.1072C142.535 26.6406 143.388 27.4726 144.007 28.6032C144.647 29.7339 144.967 31.1952 144.967 32.9872V42.9072H138.887V33.9792C138.887 32.7419 138.631 31.8459 138.119 31.2912C137.628 30.7152 136.935 30.4272 136.039 30.4272C135.399 30.4272 134.812 30.5766 134.279 30.8752C133.746 31.1526 133.33 31.5899 133.031 32.1872C132.732 32.7846 132.583 33.5632 132.583 34.5232V42.9072H126.503V19.1632H132.583V30.4912L131.175 29.0512C131.836 27.7926 132.743 26.8539 133.895 26.2352C135.047 25.5952 136.348 25.2752 137.799 25.2752Z" fill="#4800A2"/>
<path d="M158.385 42.9072V20.5072H164.721V37.8832H175.409V42.9072H158.385ZM188.439 42.9072V39.6752L188.023 38.8752V32.9232C188.023 31.9632 187.724 31.2272 187.127 30.7152C186.551 30.1819 185.623 29.9152 184.343 29.9152C183.511 29.9152 182.668 30.0539 181.815 30.3312C180.961 30.5872 180.236 30.9499 179.639 31.4192L177.591 27.2912C178.572 26.6512 179.745 26.1606 181.111 25.8192C182.497 25.4566 183.873 25.2752 185.239 25.2752C188.055 25.2752 190.231 25.9259 191.767 27.2272C193.324 28.5072 194.103 30.5232 194.103 33.2752V42.9072H188.439ZM183.319 43.1952C181.932 43.1952 180.759 42.9606 179.799 42.4912C178.839 42.0219 178.103 41.3819 177.591 40.5712C177.1 39.7606 176.855 38.8539 176.855 37.8512C176.855 36.7846 177.121 35.8672 177.655 35.0992C178.209 34.3099 179.052 33.7126 180.183 33.3072C181.313 32.8806 182.775 32.6672 184.567 32.6672H188.663V35.8352H185.399C184.417 35.8352 183.724 35.9952 183.319 36.3152C182.935 36.6352 182.743 37.0619 182.743 37.5952C182.743 38.1286 182.945 38.5552 183.351 38.8752C183.756 39.1952 184.311 39.3552 185.015 39.3552C185.676 39.3552 186.273 39.1952 186.807 38.8752C187.361 38.5339 187.767 38.0219 188.023 37.3392L188.855 39.5792C188.535 40.7739 187.905 41.6806 186.967 42.2992C186.049 42.8966 184.833 43.1952 183.319 43.1952ZM208.852 43.1952C207.295 43.1952 205.994 42.8752 204.948 42.2352C203.924 41.5952 203.156 40.6139 202.644 39.2912C202.132 37.9686 201.876 36.2726 201.876 34.2032C201.876 32.1766 202.143 30.5019 202.676 29.1792C203.231 27.8566 204.031 26.8752 205.076 26.2352C206.122 25.5952 207.38 25.2752 208.852 25.2752C210.431 25.2752 211.86 25.6379 213.14 26.3632C214.442 27.0886 215.466 28.1232 216.212 29.4672C216.98 30.7899 217.364 32.3686 217.364 34.2032C217.364 36.0592 216.98 37.6592 216.212 39.0032C215.466 40.3259 214.442 41.3606 213.14 42.1072C211.86 42.8326 210.431 43.1952 208.852 43.1952ZM197.94 42.9072V19.1632H204.02V28.4752L203.7 34.2032L203.732 39.9312V42.9072H197.94ZM207.572 38.3632C208.255 38.3632 208.863 38.2032 209.396 37.8832C209.951 37.5632 210.388 37.0939 210.708 36.4752C211.05 35.8352 211.22 35.0779 211.22 34.2032C211.22 33.3286 211.05 32.5926 210.708 31.9952C210.388 31.3766 209.951 30.9072 209.396 30.5872C208.863 30.2672 208.255 30.1072 207.572 30.1072C206.89 30.1072 206.271 30.2672 205.716 30.5872C205.183 30.9072 204.746 31.3766 204.404 31.9952C204.084 32.5926 203.924 33.3286 203.924 34.2032C203.924 35.0779 204.084 35.8352 204.404 36.4752C204.746 37.0939 205.183 37.5632 205.716 37.8832C206.271 38.2032 206.89 38.3632 207.572 38.3632ZM222.75 43.1952C221.726 43.1952 220.862 42.8539 220.158 42.1712C219.454 41.4886 219.102 40.6246 219.102 39.5792C219.102 38.4912 219.454 37.6272 220.158 36.9872C220.862 36.3259 221.726 35.9952 222.75 35.9952C223.774 35.9952 224.638 36.3259 225.342 36.9872C226.046 37.6272 226.398 38.4912 226.398 39.5792C226.398 40.6246 226.046 41.4886 225.342 42.1712C224.638 42.8539 223.774 43.1952 222.75 43.1952Z" fill="white"/>
<path d="M39.8778 15.4704L38.7974 0C37.306 2.4031 33.8973 7.47792 32.1944 8.55237C30.4914 9.62681 25.572 5.10407 23.3251 2.70839C23.195 5.49731 22.3301 11.5871 19.9109 13.6351C17.4918 15.683 11.7026 14.2499 9.11033 13.2774C9.94264 14.7676 11.6045 18.8284 11.5935 23.1505C11.5826 27.4726 5.56149 28.7938 2.55233 28.9142L18.7521 32.2077C16.2934 15.2655 32.0767 16.006 39.8778 15.4704Z" fill="#48009F"/>
</svg>
